<?xml version="1.0" encoding="iso-8859-1"?>
<!-- Generator: Adobe Illustrator 17.1.0, SVG Export Plug-In . SVG Version: 6.00 Build 0)  -->
<!DOCTYPE svg PUBLIC "-//W3C//DTD SVG 1.1//EN" "http://www.w3.org/Graphics/SVG/1.1/DTD/svg11.dtd">
<svg version="1.1" id="Capa_1" xmlns="http://www.w3.org/2000/svg" xmlns:xlink="http://www.w3.org/1999/xlink" x="0px" y="0px"
	 viewBox="0 0 259 259" style="enable-background:new 0 0 259 259;" xml:space="preserve">
<path d="M239,18.774H20c-11.028,0-20,8.972-20,20v116v21.5c0,11.028,8.972,20,20,20h73.047l-5.468,28.951H71.333
	c-4.143,0-7.5,3.357-7.5,7.5s3.357,7.5,7.5,7.5h22.463h71.407h22.463c4.143,0,7.5-3.357,7.5-7.5s-3.357-7.5-7.5-7.5H171.42
	l-5.468-28.951H239c11.028,0,20-8.972,20-20v-21.5v-116C259,27.746,250.028,18.774,239,18.774z M20,33.774h219c2.757,0,5,2.243,5,5
	v108.5H15v-108.5C15,36.018,17.243,33.774,20,33.774z M169.194,61.174c-0.411-2.959-2.541-5.392-5.419-6.192l-32.266-8.973
	c-1.316-0.365-2.705-0.365-4.02,0l-32.267,8.973c-2.878,0.8-5.007,3.233-5.419,6.192c-0.496,3.566-4.503,35.337,7.315,52.407
	c11.983,17.309,29.863,21.794,30.619,21.976c0.578,0.14,1.17,0.21,1.761,0.21s1.183-0.07,1.761-0.21
	c0.756-0.183,18.635-4.667,30.618-21.976C173.697,96.511,169.69,64.74,169.194,61.174z M153.158,107.53
	c-9.487,13.703-23.697,17.135-23.697,17.135V90.75h-29.286c-1.7-12.729,0.117-25.803,0.117-25.803l29.169-8.112V90.75h29.286
	C157.92,96.939,156.261,103.047,153.158,107.53z"/>
<g>
</g>
<g>
</g>
<g>
</g>
<g>
</g>
<g>
</g>
<g>
</g>
<g>
</g>
<g>
</g>
<g>
</g>
<g>
</g>
<g>
</g>
<g>
</g>
<g>
</g>
<g>
</g>
<g>
</g>
</svg>
