<?xml version="1.0" encoding="iso-8859-1"?>
<!-- Generator: Adobe Illustrator 19.0.0, SVG Export Plug-In . SVG Version: 6.00 Build 0)  -->
<svg version="1.1" id="Layer_1" xmlns="http://www.w3.org/2000/svg" xmlns:xlink="http://www.w3.org/1999/xlink" x="0px" y="0px"
	 viewBox="0 0 512 512" style="enable-background:new 0 0 512 512;" xml:space="preserve">
<circle style="fill:#FDDD85;" cx="474.342" cy="195.608" r="25.653"/>
<g>
	<circle style="fill:#FDE5A2;" cx="234.91" cy="195.608" r="25.653"/>
	<circle style="fill:#FDE5A2;" cx="354.626" cy="152.852" r="119.716"/>
</g>
<path style="fill:#FDDD85;" d="M269.111,152.852c0-60.31,44.6-110.195,102.614-118.494c-5.587-0.8-11.295-1.222-17.102-1.222
	c-66.117,0-119.716,53.599-119.716,119.716s53.599,119.716,119.716,119.716c5.807,0,11.515-0.422,17.102-1.222
	C313.709,263.047,269.111,213.162,269.111,152.852z"/>
<path style="fill:#E5563C;" d="M482.889,127.198H226.355V75.891c0-37.781,30.628-68.409,68.409-68.409H414.48
	c37.781,0,68.409,30.628,68.409,68.409V127.198z"/>
<path style="fill:#CF442B;" d="M328.969,7.482h-34.205c-37.781,0-68.409,30.628-68.409,68.409v51.307h34.205V75.891
	C260.559,38.11,291.186,7.482,328.969,7.482z"/>
<path style="fill:#AFB0B4;" d="M448.685,169.954H260.559c-18.891,0-34.205-15.314-34.205-34.205v-8.551h256.534v8.551
	C482.889,154.64,467.575,169.954,448.685,169.954z"/>
<g>
	<path style="fill:#9B9DA1;" d="M260.559,135.749v-8.551h-34.205v8.551c0,18.891,15.314,34.205,34.205,34.205h34.205
		C275.873,169.954,260.559,154.64,260.559,135.749z"/>
	<path style="fill:#9B9DA1;" d="M499.992,503.449H209.252V349.528c0-28.336,22.971-51.307,51.307-51.307h188.125
		c28.336,0,51.307,22.97,51.307,51.307V503.449z"/>
</g>
<path style="fill:#88898E;" d="M294.764,298.221h-34.205c-28.336,0-51.307,22.97-51.307,51.307v153.921h34.205V349.528
	C243.457,321.192,266.428,298.221,294.764,298.221z"/>
<polygon style="fill:#FDE5A2;" points="380.275,332.426 354.622,350.597 328.969,332.426 328.969,272.568 380.275,272.568 "/>
<g>
	<polygon style="fill:#E5563C;" points="423.031,366.63 380.275,332.426 380.275,298.221 423.031,298.221 	"/>
	<polygon style="fill:#E5563C;" points="286.213,366.63 328.969,332.426 328.969,298.221 286.213,298.221 	"/>
	<path style="fill:#E5563C;" d="M427.307,460.693L427.307,460.693c-16.529,0-29.929-13.4-29.929-29.929v-38.48h59.858v38.48
		C457.236,447.293,443.836,460.693,427.307,460.693z"/>
</g>
<path style="fill:#CF442B;" d="M414.48,430.764v-38.48h-17.102v38.48c0,16.529,13.4,29.929,29.929,29.929
	c2.973,0,5.84-0.439,8.551-1.246C423.496,455.767,414.48,444.321,414.48,430.764z"/>
<circle style="fill:#C3C4C6;" cx="354.626" cy="67.34" r="25.653"/>
<path style="fill:#FDE5A2;" d="M157.946,503.449h-51.307c-9.446,0-17.102-7.656-17.102-17.102v-25.653
	c0-4.722,3.829-8.551,8.551-8.551h68.409c4.722,0,8.551,3.829,8.551,8.551v25.653C175.048,495.792,167.39,503.449,157.946,503.449z"
	/>
<path style="fill:#FDDD85;" d="M106.639,477.795v-25.653h-8.551c-4.722,0-8.551,3.829-8.551,8.551v25.653
	c0,9.446,7.658,17.102,17.102,17.102h51.307c9.445,0,17.102-7.656,17.102-17.102H115.19
	C110.466,486.347,106.639,482.518,106.639,477.795z"/>
<rect x="12.576" y="264.017" style="fill:#FDD042;" width="239.432" height="188.125"/>
<rect x="12.576" y="264.017" style="fill:#F2C127;" width="34.205" height="188.125"/>
<rect x="106.643" y="264.017" style="fill:#EBEBEC;" width="51.307" height="85.511"/>
<path d="M448.682,290.739h-60.925v-14.652c20.309-5.387,38.349-15.503,53.652-29.762c6.708-6.251,12.798-13.131,17.947-20.513
	c4.6,2.265,9.725,3.466,14.915,3.466c18.566,0,33.703-15.105,33.703-33.67c0-15.866-10.8-29.294-26.022-32.794
	c0.006-0.088,0.025-0.174,0.031-0.262c0.023-0.309-0.238-0.615-0.25-0.917c5.571-7.155,8.639-16.136,8.639-25.885V75.891
	C490.373,33.75,456.622,0,414.481,0H294.765c-42.141,0-76.96,33.75-76.96,75.891v59.858c0,9.735,3.588,18.705,9.144,25.854
	c-0.001,0.214,0.133,0.429,0.148,0.646c0.014,0.189,0.1,0.376,0.114,0.564c-15.223,3.498-26.008,16.926-26.008,32.795
	c0,18.566,15.121,33.67,33.687,33.67c5.198,0,10.261-1.193,14.859-3.459c5.12,7.34,10.778,14.184,17.442,20.408
	c15.326,14.311,33.987,24.462,53.227,29.861v14.116c0,0-56.651,0.114-60.927,0.128v-26.316c0-4.427-3.054-7.482-7.482-7.482H12.576
	c-4.428,0-8.551,3.055-8.551,7.482v188.125c0,4.427,4.123,8.551,8.551,8.551h68.97c-0.005,0-0.561-0.181-0.561,0v25.653
	c0,13.851,11.803,25.653,25.653,25.653h51.307c13.851,0,24.585-11.803,24.585-25.653v-25.653c0-0.181,0.513,0,0.508,0h17.663v42.756
	c0,4.427,4.123,8.551,8.551,8.551h290.739c4.428,0,7.482-4.124,7.482-8.551v-94.063c0-4.427-3.588-8.017-8.017-8.017
	s-8.017,3.589-8.017,8.017v86.58H216.735v-35.273h35.273c4.428,0,7.482-4.124,7.482-8.551V306.364
	c3.207-0.01,9.62-0.02,18.171-0.033v60.299c0,6.569,8.131,10.387,13.293,6.259l38.312-30.543l20.842,13.851
	c2.664,1.775,6.263,1.776,8.927,0l20.792-13.851l37.919,30.543c5.16,4.127,12.766,0.311,12.766-6.259v-60.386l17.637-0.006
	c23.871,0,43.29,19.42,43.29,43.29v26.009c0,4.427,3.588,8.017,8.017,8.017s8.017-3.589,8.017-8.017v-26.009
	C507.474,316.817,481.395,290.739,448.682,290.739z M149.394,272.568v69.478h-35.273v-69.478H149.394z M166.497,460.693v25.653
	c0,5.01-3.541,9.62-8.551,9.62h-51.307c-5.01,0-9.62-4.61-9.62-9.62v-25.653c0-0.295,0.775,0,1.069,0h4.276v17.102
	c0,4.427,3.588,8.017,8.017,8.017s8.017-3.589,8.017-8.017v-17.102h5.344v17.102c0,4.427,3.588,8.017,8.017,8.017
	c4.428,0,8.017-3.589,8.017-8.017v-17.102h5.344v17.102c0,4.427,3.588,8.017,8.017,8.017s8.017-3.589,8.017-8.017v-17.102H166.497
	C166.791,460.693,166.497,460.398,166.497,460.693z M243.457,444.66H20.058V272.568h78.029v76.96c0,4.427,4.123,8.551,8.551,8.551
	h51.307c4.428,0,7.482-4.124,7.482-8.551v-76.96h78.029V444.66z M233.837,135.749L233.837,135.749h240.501l0,0
	c0,14.44-11.213,26.722-25.653,26.722H260.559C246.119,162.472,233.837,150.189,233.837,135.749z M491.975,195.608
	c0,9.725-7.912,17.637-17.637,17.637c-2.238,0-4.43-0.426-6.476-1.235c5.455-10.426,9.448-21.585,11.844-33.198
	C486.946,181.094,491.975,187.778,491.975,195.608z M233.837,75.891c0-33.3,27.627-59.858,60.927-59.858H414.48
	c33.3,0,59.858,26.558,59.858,59.858v43.825H233.837L233.837,75.891L233.837,75.891z M234.906,213.244
	c-9.725,0-17.637-7.912-17.637-17.637c0-7.83,5.028-14.514,12.269-16.797c2.396,11.615,6.391,22.776,11.847,33.203
	C239.338,212.822,237.147,213.244,234.906,213.244z M245.138,175.309c4.78,1.882,9.979,3.196,15.42,3.196h188.125
	c5.442,0,10.641-1.314,15.421-3.196c-10.379,51.171-56.046,89.509-109.484,89.509C301.138,264.818,255.511,226.495,245.138,175.309z
	 M293.695,306.315c7.482-0.006,17.102-0.014,26.722-0.021v22.279l-26.722,21.378V306.315z M354.088,339.893l-17.637-11.758v-48.767
	c6.413,0.803,11.695,1.215,17.637,1.215c5.942,0,12.292-0.413,17.637-1.215v48.767L354.088,339.893z M414.48,349.951l-26.722-21.378
	v-22.314l26.722-0.01V349.951z"/>
<path d="M362.477,390.713c-0.617-3.226-3.275-5.755-6.489-6.32c-3.227-0.568-6.562,0.965-8.245,3.773
	c-1.778,2.965-1.408,6.862,0.889,9.442c2.251,2.528,5.931,3.362,9.058,2.074C361.17,398.246,363.237,394.415,362.477,390.713z"/>
<path d="M362.477,424.917c-0.617-3.225-3.275-5.755-6.489-6.32c-3.224-0.567-6.564,0.967-8.245,3.773
	c-1.778,2.965-1.408,6.862,0.889,9.442c2.245,2.522,5.932,3.37,9.058,2.084C361.17,432.463,363.235,428.611,362.477,424.917z"/>
<path d="M362.028,457.625c-1.271-3.021-4.315-5.028-7.605-4.944c-3.271,0.083-6.253,2.223-7.348,5.31
	c-1.121,3.164-0.127,6.764,2.463,8.896c2.687,2.214,6.634,2.406,9.529,0.476C362.235,465.251,363.431,461.138,362.028,457.625z"/>
<path d="M372.259,230.347c0-4.427-3.588-8.017-8.017-8.017h-19.24c-4.428,0-8.017,3.589-8.017,8.017s3.588,8.017,8.017,8.017h19.24
	C368.669,238.363,372.259,234.774,372.259,230.347z"/>
<path d="M303.315,178.772c-11.641,0-21.111,9.47-21.111,21.111c0,4.427,3.588,8.017,8.017,8.017s8.017-3.589,8.017-8.017
	c0-2.799,2.278-5.077,5.077-5.077c2.799,0,5.077,2.278,5.077,5.077c0,4.427,3.588,8.017,8.017,8.017
	c4.428,0,8.017-3.589,8.017-8.017C324.426,188.243,314.955,178.772,303.315,178.772z"/>
<path d="M392.835,207.9c4.428,0,8.017-3.589,8.017-8.017c0-2.799,2.278-5.077,5.077-5.077c2.799,0,5.077,2.278,5.077,5.077
	c0,4.427,3.588,8.017,8.017,8.017s8.017-3.589,8.017-8.017c0-11.64-9.469-21.111-21.111-21.111c-11.641,0-21.111,9.47-21.111,21.111
	C384.818,204.31,388.406,207.9,392.835,207.9z"/>
<path d="M397.378,384.802c-4.428,0-8.551,3.055-8.551,7.482v38.48c0,20.924,17.022,37.946,37.946,37.946
	s37.946-17.022,37.946-37.946v-38.48c0-4.427-3.054-7.482-7.482-7.482H397.378z M448.685,430.764
	c0,12.083-9.83,21.912-21.912,21.912s-21.912-9.83-21.912-21.912v-29.929h43.825V430.764z"/>
<path d="M354.622,33.67c-18.566,0-33.67,15.105-33.67,33.67s15.105,33.67,33.67,33.67c18.566,0,33.67-15.105,33.67-33.67
	S373.188,33.67,354.622,33.67z M354.622,84.977c-9.725,0-17.637-7.912-17.637-17.637s7.912-17.637,17.637-17.637
	c9.725,0,17.637,7.912,17.637,17.637S364.346,84.977,354.622,84.977z"/>
<path d="M431.582,34.205h-34.205c-4.428,0-8.017,3.589-8.017,8.017s3.588,8.017,8.017,8.017h34.205c4.428,0,8.017-3.589,8.017-8.017
	S436.01,34.205,431.582,34.205z"/>
<path d="M414.48,59.858h-17.102c-4.428,0-8.017,3.589-8.017,8.017s3.588,8.017,8.017,8.017h17.102c4.428,0,8.017-3.589,8.017-8.017
	S418.907,59.858,414.48,59.858z"/>
<path d="M405.929,85.511h-8.551c-4.428,0-8.017,3.589-8.017,8.017c0,4.427,3.588,8.017,8.017,8.017h8.551
	c4.428,0,8.017-3.589,8.017-8.017C413.946,89.101,410.356,85.511,405.929,85.511z"/>
<path d="M311.866,34.205h-34.205c-4.428,0-8.017,3.589-8.017,8.017s3.588,8.017,8.017,8.017h34.205c4.428,0,8.017-3.589,8.017-8.017
	S316.294,34.205,311.866,34.205z"/>
<path d="M311.866,59.858h-17.102c-4.428,0-8.017,3.589-8.017,8.017s3.588,8.017,8.017,8.017h17.102c4.428,0,8.017-3.589,8.017-8.017
	S316.294,59.858,311.866,59.858z"/>
<path d="M311.866,85.511h-8.551c-4.428,0-8.017,3.589-8.017,8.017c0,4.427,3.588,8.017,8.017,8.017h8.551
	c4.428,0,8.017-3.589,8.017-8.017C319.883,89.101,316.294,85.511,311.866,85.511z"/>
<path d="M54.797,375.716c-4.428,0-8.017,3.589-8.017,8.017v17.102c0,4.427,3.588,8.017,8.017,8.017s8.017-3.589,8.017-8.017v-17.102
	C62.814,379.305,59.225,375.716,54.797,375.716z"/>
<path d="M80.451,375.716c-4.428,0-8.017,3.589-8.017,8.017v17.102c0,4.427,3.588,8.017,8.017,8.017c4.428,0,8.017-3.589,8.017-8.017
	v-17.102C88.468,379.305,84.878,375.716,80.451,375.716z"/>
<path d="M123.207,375.716c-4.428,0-8.017,3.589-8.017,8.017v17.102c0,4.427,3.588,8.017,8.017,8.017
	c4.428,0,8.017-3.589,8.017-8.017v-17.102C131.223,379.305,127.634,375.716,123.207,375.716z"/>
<path d="M148.86,375.716c-4.428,0-8.017,3.589-8.017,8.017v17.102c0,4.427,3.588,8.017,8.017,8.017s8.017-3.589,8.017-8.017v-17.102
	C156.877,379.305,153.287,375.716,148.86,375.716z"/>
<path d="M174.513,408.852c4.428,0,8.017-3.589,8.017-8.017v-17.102c0-4.427-3.588-8.017-8.017-8.017s-8.017,3.589-8.017,8.017
	v17.102C166.497,405.262,170.085,408.852,174.513,408.852z"/>
<path d="M208.718,375.716c-4.428,0-8.017,3.589-8.017,8.017v17.102c0,4.427,3.588,8.017,8.017,8.017
	c4.428,0,8.017-3.589,8.017-8.017v-17.102C216.735,379.305,213.145,375.716,208.718,375.716z"/>
<path d="M197.551,338.094l3.149-3.416v14.85c0,4.427,3.588,8.017,8.017,8.017c4.428,0,8.017-3.589,8.017-8.017v-14.85l3.683,3.416
	c3.089,3.088,8.382,3.088,11.471,0c3.131-3.131,3.197-8.207,0.067-11.337l-17.069-17.102c-3.132-3.131-8.19-3.131-11.322,0
	l-17.094,17.102c-3.131,3.131-3.26,8.207-0.129,11.337C189.475,341.225,194.421,341.225,197.551,338.094z"/>
<path d="M78.102,326.758L61,309.655c-3.132-3.131-8.207-3.131-11.338,0L32.56,326.758c-3.131,3.131-3.131,8.207,0,11.337
	c3.132,3.131,7.94,3.131,11.071,0l3.149-3.416v14.85c0,4.427,3.588,8.017,8.017,8.017s8.017-3.589,8.017-8.017v-14.85l3.683,3.416
	c3.089,3.088,8.382,3.088,11.471,0C81.1,334.965,81.233,329.887,78.102,326.758z"/>
<g>
</g>
<g>
</g>
<g>
</g>
<g>
</g>
<g>
</g>
<g>
</g>
<g>
</g>
<g>
</g>
<g>
</g>
<g>
</g>
<g>
</g>
<g>
</g>
<g>
</g>
<g>
</g>
<g>
</g>
</svg>
